<svg width="680" height="520" viewBox="0 0 680 520" xmlns="http://www.w3.org/2000/svg" style="background: white; font-family: -apple-system, BlinkMacSystemFont, 'Segoe UI', sans-serif;">
<defs>
  <marker id="arrow" viewBox="0 0 10 10" refX="8" refY="5" markerWidth="6" markerHeight="6" orient="auto-start-reverse">
    <path d="M2 1L8 5L2 9" fill="none" stroke="context-stroke" stroke-width="1.5" stroke-linecap="round" stroke-linejoin="round"/>
  </marker>
</defs>

<!-- Timeline labels -->
<text x="40" y="490" text-anchor="start" font-size="12" fill="#666">Sprint start</text>
<text x="640" y="490" text-anchor="end" font-size="12" fill="#666">Sprint end</text>
<line x1="80" y1="480" x2="620" y2="480" stroke="#ccc" stroke-width="0.5" stroke-dasharray="4 4" opacity="0.6"/>

<!-- === MAIN BRANCH === -->
<line x1="60" y1="60" x2="620" y2="60" stroke="#185FA5" stroke-width="3" stroke-linecap="round"/>
<circle cx="60" cy="60" r="8" fill="#185FA5"/>
<circle cx="60" cy="60" r="4" fill="#E6F1FB"/>
<circle cx="620" cy="60" r="8" fill="#185FA5"/>
<circle cx="620" cy="60" r="4" fill="#E6F1FB"/>
<rect x="40" y="18" width="80" height="26" rx="13" fill="#E6F1FB" stroke="#185FA5" stroke-width="0.5"/>
<text x="80" y="34" text-anchor="middle" font-size="12" font-weight="600" fill="#0C447C">main</text>

<!-- === DEV BRANCH === -->
<path d="M80 60 C80 100, 90 160, 100 180" fill="none" stroke="#0F6E56" stroke-width="2.5" stroke-linecap="round"/>
<line x1="100" y1="180" x2="560" y2="180" stroke="#0F6E56" stroke-width="2.5" stroke-linecap="round"/>
<path d="M560 180 C570 160, 590 100, 600 60" fill="none" stroke="#0F6E56" stroke-width="2.5" stroke-linecap="round" stroke-dasharray="6 4"/>
<line x1="598" y1="66" x2="616" y2="62" stroke="#0F6E56" stroke-width="2.5" marker-end="url(#arrow)"/>

<circle cx="100" cy="180" r="6" fill="#0F6E56"/><circle cx="100" cy="180" r="3" fill="#E1F5EE"/>
<circle cx="250" cy="180" r="6" fill="#0F6E56"/><circle cx="250" cy="180" r="3" fill="#E1F5EE"/>
<circle cx="370" cy="180" r="6" fill="#0F6E56"/><circle cx="370" cy="180" r="3" fill="#E1F5EE"/>
<circle cx="470" cy="180" r="6" fill="#0F6E56"/><circle cx="470" cy="180" r="3" fill="#E1F5EE"/>
<circle cx="560" cy="180" r="6" fill="#0F6E56"/><circle cx="560" cy="180" r="3" fill="#E1F5EE"/>

<rect x="40" y="163" width="54" height="26" rx="13" fill="#E1F5EE" stroke="#0F6E56" stroke-width="0.5"/>
<text x="67" y="179" text-anchor="middle" font-size="12" font-weight="600" fill="#085041">dev</text>

<!-- === FEATURE BRANCH A === -->
<path d="M120 180 C120 210, 130 240, 140 280" fill="none" stroke="#D85A30" stroke-width="2" stroke-linecap="round"/>
<line x1="140" y1="280" x2="230" y2="280" stroke="#D85A30" stroke-width="2" stroke-linecap="round"/>
<circle cx="160" cy="280" r="4" fill="#D85A30"/>
<circle cx="185" cy="280" r="4" fill="#D85A30"/>
<circle cx="210" cy="280" r="4" fill="#D85A30"/>
<path d="M230 280 C240 260, 245 210, 250 180" fill="none" stroke="#D85A30" stroke-width="2" stroke-linecap="round" stroke-dasharray="4 3"/>
<line x1="248" y1="186" x2="250" y2="182" stroke="#D85A30" stroke-width="2" marker-end="url(#arrow)"/>
<rect x="132" y="297" width="130" height="22" rx="11" fill="#FAECE7" stroke="#D85A30" stroke-width="0.5"/>
<text x="197" y="311" text-anchor="middle" font-size="10" fill="#712B13">feature/add-workout</text>

<!-- === FEATURE BRANCH B === -->
<path d="M140 180 C140 220, 150 260, 160 370" fill="none" stroke="#D4537E" stroke-width="2" stroke-linecap="round"/>
<line x1="160" y1="370" x2="340" y2="370" stroke="#D4537E" stroke-width="2" stroke-linecap="round"/>
<circle cx="195" cy="370" r="4" fill="#D4537E"/>
<circle cx="230" cy="370" r="4" fill="#D4537E"/>
<circle cx="265" cy="370" r="4" fill="#D4537E"/>
<circle cx="300" cy="370" r="4" fill="#D4537E"/>
<path d="M340 370 C350 340, 360 260, 370 180" fill="none" stroke="#D4537E" stroke-width="2" stroke-linecap="round" stroke-dasharray="4 3"/>
<line x1="368" y1="186" x2="370" y2="182" stroke="#D4537E" stroke-width="2" marker-end="url(#arrow)"/>
<rect x="145" y="387" width="150" height="22" rx="11" fill="#FBEAF0" stroke="#D4537E" stroke-width="0.5"/>
<text x="220" y="401" text-anchor="middle" font-size="10" fill="#72243E">feature/search-entries</text>

<!-- === FEATURE BRANCH C === -->
<path d="M280 180 C280 210, 290 240, 300 280" fill="none" stroke="#7F77DD" stroke-width="2" stroke-linecap="round"/>
<line x1="300" y1="280" x2="450" y2="280" stroke="#7F77DD" stroke-width="2" stroke-linecap="round"/>
<circle cx="335" cy="280" r="4" fill="#7F77DD"/>
<circle cx="370" cy="280" r="4" fill="#7F77DD"/>
<circle cx="405" cy="280" r="4" fill="#7F77DD"/>
<circle cx="430" cy="280" r="4" fill="#7F77DD"/>
<path d="M450 280 C455 250, 460 220, 470 180" fill="none" stroke="#7F77DD" stroke-width="2" stroke-linecap="round" stroke-dasharray="4 3"/>
<line x1="468" y1="186" x2="470" y2="182" stroke="#7F77DD" stroke-width="2" marker-end="url(#arrow)"/>
<rect x="310" y="297" width="140" height="22" rx="11" fill="#EEEDFE" stroke="#7F77DD" stroke-width="0.5"/>
<text x="380" y="311" text-anchor="middle" font-size="10" fill="#3C3489">feature/prisma-schema</text>

<!-- PR callout annotations -->
<text x="260" y="230" text-anchor="middle" font-size="12" fill="#D85A30" opacity="0.8">PR</text>
<text x="385" y="230" text-anchor="middle" font-size="12" fill="#D4537E" opacity="0.8">PR</text>
<text x="480" y="230" text-anchor="middle" font-size="12" fill="#7F77DD" opacity="0.8">PR</text>

<!-- Sprint-end merge annotation -->
<text x="588" y="130" text-anchor="middle" font-size="12" fill="#666" opacity="0.8">Sprint-end</text>
<text x="588" y="146" text-anchor="middle" font-size="12" fill="#666" opacity="0.8">merge via PR</text>

<!-- Legend -->
<line x1="40" y1="448" x2="70" y2="448" stroke="#185FA5" stroke-width="3" stroke-linecap="round"/>
<text x="78" y="452" font-size="12" fill="#444">main (stable)</text>

<line x1="190" y1="448" x2="220" y2="448" stroke="#0F6E56" stroke-width="2.5" stroke-linecap="round"/>
<text x="228" y="452" font-size="12" fill="#444">dev (integration)</text>

<line x1="370" y1="448" x2="400" y2="448" stroke="#888" stroke-width="2" stroke-linecap="round"/>
<text x="408" y="452" font-size="12" fill="#444">feature branches</text>

<line x1="530" y1="448" x2="560" y2="448" stroke="#888" stroke-width="2" stroke-linecap="round" stroke-dasharray="4 3"/>
<text x="568" y="452" font-size="12" fill="#444">PR merge</text>
</svg>
